# xmcd
# Copyright (C) 1995-1998 Ti Kan
#
# Track frame offsets:
#       150
#       27500
#       52082
#       76678
#       102300
#       123583
#
# Disc length: 1922 seconds
#
# Revision: 0
# Processed by: cddbd v1.5.2PL0 Copyright (c) Steve Scherf et al.
# Submitted via: CD-Import v1.0
#
DISCID=49078006
DTITLE=Scorpio Electric - Demo
DYEAR=1900
DGENRE=
TTITLE0=Morning Sun
TTITLE1=No Man
TTITLE2=Breaking Your Waves
TTITLE3=Talkin' About
TTITLE4=Fairy Tales
TTITLE5=Left
EXTD=
EXTT0=
EXTT1=
EXTT2=
EXTT3=
EXTT4=
EXTT5=
PLAYORDER=
